<svg width="410" height="367" fill="none" xmlns="http://www.w3.org/2000/svg"><path fill-rule="evenodd" clip-rule="evenodd" d="M236.899 2.038c38.953-5.8 79.329 8.732 110.484 32.821 30.619 23.674 48.144 59.904 57.886 97.362 9.294 35.731 2.924 71.787-4.482 107.957-8.408 41.061-6.805 91.667-41.276 115.51-34.462 23.836-80.789.424-122.612-2.152-38.463-2.37-77.468 4.582-112.105-12.309-39.24-19.135-73.386-48.642-92.937-87.677-21.682-43.294-46.496-98.862-21.149-140.117 26.066-42.424 92.607-26.888 137.276-48.887 33.317-16.408 52.182-57.04 88.915-62.508Z" fill="#CF121B" fill-opacity=".2"/></svg>