<svg width="527" height="511" fill="none" xmlns="http://www.w3.org/2000/svg"><path fill-rule="evenodd" clip-rule="evenodd" d="M254.148 32.067C312.15 22.542 371.527-17.027 424.53 8.381c54.005 25.888 75.965 91.569 91.744 149.342 15.2 55.65 13.372 114.029-4.86 168.76-18.128 54.418-50.276 103.729-96.997 137.001-46.425 33.063-103.423 50.322-160.269 46.216-54.392-3.93-110.3-25.568-144.284-68.218-31.047-38.965-6.532-97.285-24.589-143.719C65.304 246.404-7.328 215.042.602 160.511c7.73-53.152 71.574-77.862 119.487-102.135 41.643-21.095 87.995-18.744 134.059-26.309Z" fill="#000"/></svg>