<svg width="256" height="257" fill="none" xmlns="http://www.w3.org/2000/svg"><path d="M88.35 57.395V8.605C41.189 25.826 7.653 71.746 8.002 125.557c0 7.534.699 15.068 2.096 22.242l41.222-24.753c.698-27.623 15.37-52.018 37.03-65.65Zm79.649-48.79.349 49.149c22.009 13.99 36.681 38.744 37.03 67.085.35 43.767-34.235 79.283-76.505 79.283-13.624 0-26.55-3.588-37.38-10.045l-41.57 24.753c20.96 18.655 48.558 29.776 78.601 29.776 66.374-.359 119.823-55.964 119.473-123.767 0-53.812-33.536-99.372-79.998-116.233Z" fill="#CF121B"/></svg>