<svg width="240" height="99" fill="none" xmlns="http://www.w3.org/2000/svg"><g clip-path="url(#a)"><path d="M59.2 84.675h2.992v1.135c.515-.619 1.031-1.031 1.444-1.238.412-.206.928-.309 1.547-.309.825 0 1.65.206 2.475.825l-1.34 2.785c-.62-.413-1.135-.619-1.651-.619-1.65 0-2.475 1.238-2.475 3.816v6.807H59.2V84.676ZM10.004 89.214l6.498 8.87h-3.816l-5.982-8.561h-3.3v8.56H.206V77.25h6.395c2.785 0 4.744.515 5.982 1.547 1.34 1.134 2.063 2.681 2.063 4.538 0 1.444-.413 2.785-1.238 3.816-.928 1.031-2.063 1.753-3.404 2.063Zm-6.6-2.373h3.712c2.992 0 4.435-1.134 4.435-3.403 0-2.166-1.444-3.197-4.331-3.197H3.404v6.6ZM33.623 87.46c0-.412.206-.825.515-1.134.31-.31.722-.516 1.238-.516.413 0 .825.206 1.238.516.31.31.515.722.515 1.237 0 .516-.206.825-.515 1.238-.31.31-.722.516-1.238.516s-.825-.207-1.238-.516c-.309-.516-.515-.928-.515-1.34ZM33.623 96.433c0-.412.206-.825.515-1.134.31-.31.722-.516 1.238-.516.413 0 .825.206 1.238.516.31.31.515.722.515 1.237 0 .516-.206.825-.515 1.238-.31.31-.722.516-1.238.516s-.825-.207-1.238-.516c-.309-.516-.515-.825-.515-1.34ZM56.313 78.178v3.713c-1.857-1.547-3.713-2.27-5.673-2.27-2.166 0-3.919.826-5.363 2.373-1.444 1.547-2.166 3.403-2.166 5.672 0 2.166.722 4.023 2.27 5.57 1.443 1.547 3.3 2.269 5.466 2.269 1.134 0 2.062-.206 2.784-.516.413-.206.928-.412 1.341-.722.413-.31.928-.722 1.444-1.134v3.816a11.179 11.179 0 0 1-5.672 1.547c-2.992 0-5.57-1.031-7.633-3.094-2.062-2.063-3.197-4.641-3.197-7.53 0-2.68.825-5.053 2.578-7.116 2.166-2.578 4.951-3.816 8.355-3.816 1.856-.31 3.712.207 5.466 1.238ZM126.446 84.366h2.991v1.135c.516-.62 1.031-1.032 1.444-1.238.413-.206.928-.31 1.547-.31.825 0 1.65.207 2.475.826l-1.34 2.784c-.619-.412-1.135-.618-1.651-.618-1.65 0-2.475 1.237-2.475 3.816v6.807h-2.991V84.366ZM106.437 86.945V97.67h-2.99V86.945h-3.301v-2.888h3.301v-4.435h2.99v4.435h3.198v2.888h-3.198ZM146.558 86.532l-2.475 1.34c-.413-.824-.929-1.237-1.444-1.237-.31 0-.516.103-.722.31-.207.206-.31.412-.31.722 0 .515.619 1.03 1.754 1.443 1.65.722 2.681 1.341 3.3 1.857.516.619.825 1.34.825 2.372 0 1.238-.412 2.372-1.341 3.197-.928.825-1.959 1.238-3.3 1.238-2.166 0-3.816-1.031-4.744-3.197l2.578-1.238c.413.619.619 1.031.825 1.238.413.31.825.515 1.341.515 1.031 0 1.547-.515 1.547-1.444 0-.515-.413-1.03-1.238-1.547-.309-.103-.619-.309-.928-.412-.309-.103-.619-.31-.928-.413-.928-.412-1.547-.825-1.857-1.237-.412-.516-.722-1.238-.722-2.166 0-1.135.413-2.063 1.135-2.888.825-.722 1.753-1.135 2.888-1.135 1.753.104 2.991 1.032 3.816 2.682ZM163.988 84.882l8.045-8.354h4.228l-9.385 9.488 9.488 11.345h-4.228l-7.529-9.282-.619.619v8.663h-3.197l-.103-20.833h3.197l.103 8.354ZM193.485 84.16h3.094v1.237c1.032-1.03 2.269-1.547 3.61-1.547 1.547 0 2.682.516 3.61 1.444.722.826 1.134 2.166 1.134 4.023v8.044h-3.094V90.04c0-1.341-.206-2.166-.515-2.682-.31-.516-1.032-.722-1.96-.722-1.031 0-1.753.31-2.166 1.031-.412.62-.619 1.857-.619 3.404v6.291h-3.094V84.16ZM216.072 86.223l-2.475 1.34c-.413-.825-.928-1.237-1.444-1.237-.309 0-.516.103-.722.31-.206.205-.309.412-.309.721 0 .516.618 1.031 1.753 1.444 1.65.722 2.682 1.34 3.3 1.856.516.62.825 1.341.825 2.373 0 1.237-.412 2.372-1.34 3.197-.929.825-1.96 1.237-3.301 1.237-2.166 0-3.816-1.03-4.744-3.197l2.578-1.237c.413.618.619 1.031.826 1.237.412.31.825.516 1.34.516 1.032 0 1.547-.516 1.547-1.444 0-.516-.412-1.031-1.237-1.547-.31-.103-.619-.31-.929-.413-.309-.103-.618-.309-.928-.412-.928-.413-1.547-.825-1.856-1.238-.413-.515-.722-1.237-.722-2.166 0-1.134.412-2.062 1.134-2.888.825-.721 1.754-1.134 2.888-1.134 1.753.103 2.991 1.031 3.816 2.682ZM235.978 78.487c0-.515.206-1.031.618-1.34.413-.413.826-.62 1.341-.62.516 0 1.032.207 1.444.62.413.412.619.825.619 1.34 0 .516-.206 1.032-.619 1.444-.412.413-.825.62-1.341.62a2.038 2.038 0 0 1-1.444-.62 2.037 2.037 0 0 1-.618-1.444Zm3.506 5.467.103 13.201h-2.991l-.103-13.201h2.991ZM26.3 94.061c-.619 1.031-1.857 1.753-3.3 1.856-2.063 0-3.713-1.443-3.713-3.3h10.52c.103-.412.103-.825.103-1.238 0-3.816-3.094-6.807-6.91-6.807-3.817 0-6.808 3.094-6.808 6.91 0 3.817 3.095 6.808 6.91 6.808 2.785 0 5.158-1.754 6.292-4.126l-3.094-.103ZM23 86.738c2.062 0 3.712 1.444 3.712 3.3h-7.529c.104-1.856 1.754-3.3 3.817-3.3ZM78.075 93.752c-.619 1.031-1.857 1.753-3.3 1.856-2.063 0-3.714-1.444-3.714-3.3h10.52c.104-.413.104-.825.104-1.238 0-3.816-3.094-6.807-6.91-6.807-3.817 0-6.808 3.094-6.808 6.91 0 3.816 3.094 6.807 6.91 6.807 2.785 0 5.157-1.753 6.292-4.125l-3.094-.103Zm-3.404-7.22c2.063 0 3.713 1.444 3.713 3.3h-7.529c.103-1.856 1.754-3.3 3.816-3.3ZM117.473 84.057c-3.713 0-6.807 3.094-6.807 6.807 0 3.713 3.094 6.807 6.807 6.807 3.713 0 6.807-3.094 6.807-6.807 0-3.816-3.094-6.807-6.807-6.807Zm0 10.83c-2.269 0-4.022-1.754-4.022-4.023 0-2.27 1.753-4.023 4.022-4.023s4.023 1.754 4.023 4.023c0 2.166-1.754 4.022-4.023 4.022ZM94.474 84.16v1.547c-1.238-1.031-2.682-1.547-4.435-1.547-3.713 0-6.807 3.094-6.807 6.807 0 3.713 3.094 6.807 6.807 6.807 1.65 0 3.197-.619 4.435-1.65v1.547h2.578l-.103-13.511h-2.475Zm-4.332 10.83c-2.27 0-4.022-1.754-4.022-4.023 0-2.27 1.753-4.022 4.022-4.022s4.022 1.753 4.022 4.022c0 2.166-1.753 4.022-4.022 4.022Z" fill="#231815"/><path d="M186.988 83.747v1.547c-1.238-1.031-2.682-1.65-4.435-1.547-3.713 0-6.807 3.094-6.807 6.807 0 3.713 3.094 6.807 6.807 6.807 1.65 0 3.197-.618 4.331-1.65v1.547h2.682l-.103-13.51h-2.475Zm-4.332 10.83c-2.269 0-4.023-1.754-4.023-4.023 0-2.269 1.754-4.022 4.023-4.022 2.269 0 4.022 1.753 4.022 4.022 0 2.166-1.856 4.023-4.022 4.023ZM230.099 83.541v1.547c-1.238-1.031-2.682-1.65-4.435-1.547-3.713 0-6.807 3.094-6.807 6.807 0 3.713 3.094 6.807 6.807 6.807 1.65 0 3.197-.619 4.332-1.65v1.547h2.578l.103-13.511h-2.578Zm-4.332 10.83c-2.269 0-4.022-1.754-4.022-4.023 0-2.269 1.753-4.022 4.022-4.022s4.022 1.753 4.022 4.022c0 2.166-1.856 4.022-4.022 4.022ZM139.751 82.406c0-.412-.206-.825-.516-1.237a1.708 1.708 0 0 0-1.238-.516c-.412 0-.825.206-1.237.516-.31.31-.516.722-.516 1.134 0 .516.206.929.516 1.238.103.103.206.103.206.206 0 .31 0 .825-.516 1.547l.104.103s2.372-1.237 2.887-2.475v-.103c0-.103 0-.103.104-.206v-.103c.206 0 .206 0 .206-.104Z" fill="#231815"/><path d="M119.536 0C99.94.103 84.16 16.09 84.263 35.582c0 2.27.206 4.538.619 6.601l12.067-6.91c.103-12.377 10.211-22.38 22.587-22.484 12.583-.103 22.793 10.107 22.793 22.587.103 12.583-10.107 22.793-22.587 22.793-3.919 0-7.632-.928-10.829-2.681l-12.17 7.116c6.188 5.26 14.233 8.354 22.999 8.354 19.596-.103 35.376-16.09 35.273-35.582 0-19.7-15.883-35.48-35.479-35.376ZM23.722 16.399V2.372C9.798 7.322-.103 20.524 0 35.995c0 2.166.206 4.332.619 6.394l12.17-7.116c.206-7.942 4.538-14.955 10.933-18.874ZM47.237 2.372l.103 14.13c6.498 4.022 10.83 11.139 10.932 19.287.104 12.582-10.107 22.793-22.587 22.793-4.022 0-7.838-1.032-11.035-2.888L12.377 62.81c6.188 5.364 14.336 8.56 23.205 8.56 19.596-.102 35.376-16.089 35.273-35.581 0-15.471-9.9-28.57-23.618-33.417ZM192.248 15.677l-.104-14.027c-13.82 4.848-23.721 18.05-23.721 33.623 0 2.166.206 4.332.619 6.394l12.17-7.116c.309-8.045 4.641-14.955 11.036-18.874ZM215.763 1.65l.103 14.13c6.498 4.022 10.829 11.139 10.933 19.287.103 12.582-10.108 22.793-22.587 22.793-4.023 0-7.839-1.032-11.036-2.888l-12.067 7.013c6.188 5.364 14.336 8.56 23.206 8.56 19.596-.102 35.376-16.089 35.273-35.581-.207-15.471-10.005-28.466-23.825-33.314Z" fill="#CF121B"/></g><defs><clipPath id="a"><path fill="#fff" d="M0 0h240v98.29H0z"/></clipPath></defs></svg>